<mxfile host="app.diagrams.net" modified="2021-01-25T23:05:35.540Z" agent="5.0 (Windows NT 10.0; Win64; x64) AppleWebKit/537.36 (KHTML, like Gecko) Chrome/88.0.4324.96 Safari/537.36" etag="8_WGyUPVAkaELLFRgggr" version="14.2.7" type="github">
  <diagram id="C5RBs43oDa-KdzZeNtuy" name="Page-1">
    <mxGraphModel dx="1866" dy="548" grid="1" gridSize="10" guides="1" tooltips="1" connect="1" arrows="1" fold="1" page="1" pageScale="1" pageWidth="827" pageHeight="1169" math="0" shadow="0">
      <root>
        <mxCell id="WIyWlLk6GJQsqaUBKTNV-0" />
        <mxCell id="WIyWlLk6GJQsqaUBKTNV-1" parent="WIyWlLk6GJQsqaUBKTNV-0" />
        <mxCell id="WIyWlLk6GJQsqaUBKTNV-2" value="" style="rounded=0;html=1;jettySize=auto;orthogonalLoop=1;fontSize=11;endArrow=block;endFill=0;endSize=8;strokeWidth=1;shadow=0;labelBackgroundColor=#000000;edgeStyle=orthogonalEdgeStyle;verticalAlign=middle;entryX=0.5;entryY=0;entryDx=0;entryDy=0;" parent="WIyWlLk6GJQsqaUBKTNV-1" source="WIyWlLk6GJQsqaUBKTNV-3" target="X8ssAYlHQM4Of4_cosEG-1" edge="1">
          <mxGeometry relative="1" as="geometry">
            <mxPoint x="-70" y="80" as="targetPoint" />
            <Array as="points">
              <mxPoint x="-75" y="40" />
            </Array>
          </mxGeometry>
        </mxCell>
        <mxCell id="X8ssAYlHQM4Of4_cosEG-45" style="edgeStyle=orthogonalEdgeStyle;rounded=0;orthogonalLoop=1;jettySize=auto;html=1;exitX=0.25;exitY=1;exitDx=0;exitDy=0;fontSize=13;entryX=0.5;entryY=0;entryDx=0;entryDy=0;" edge="1" parent="WIyWlLk6GJQsqaUBKTNV-1" source="WIyWlLk6GJQsqaUBKTNV-3" target="X8ssAYlHQM4Of4_cosEG-46">
          <mxGeometry relative="1" as="geometry">
            <mxPoint x="260" y="100" as="targetPoint" />
          </mxGeometry>
        </mxCell>
        <mxCell id="WIyWlLk6GJQsqaUBKTNV-3" value="&lt;b style=&quot;line-height: 120%&quot;&gt;&lt;font style=&quot;font-size: 13px&quot;&gt;AirBnB_clone_v3&lt;/font&gt;&lt;/b&gt;" style="rounded=1;whiteSpace=wrap;html=1;fontSize=12;glass=0;strokeWidth=1;shadow=1;fillColor=#b1ddf0;strokeColor=#10739e;sketch=1;" parent="WIyWlLk6GJQsqaUBKTNV-1" vertex="1">
          <mxGeometry x="354" y="20" width="120" height="40" as="geometry" />
        </mxCell>
        <mxCell id="X8ssAYlHQM4Of4_cosEG-3" value="" style="edgeStyle=orthogonalEdgeStyle;rounded=0;orthogonalLoop=1;jettySize=auto;html=1;" edge="1" parent="WIyWlLk6GJQsqaUBKTNV-1" source="X8ssAYlHQM4Of4_cosEG-1" target="X8ssAYlHQM4Of4_cosEG-2">
          <mxGeometry relative="1" as="geometry" />
        </mxCell>
        <mxCell id="X8ssAYlHQM4Of4_cosEG-1" value="&lt;font style=&quot;font-size: 14px&quot;&gt;Models&lt;/font&gt;" style="ellipse;whiteSpace=wrap;html=1;rounded=1;shadow=1;glass=0;sketch=1;fillColor=#fad9d5;strokeColor=#ae4132;fontStyle=1" vertex="1" parent="WIyWlLk6GJQsqaUBKTNV-1">
          <mxGeometry x="-130" y="100" width="110" height="40" as="geometry" />
        </mxCell>
        <mxCell id="X8ssAYlHQM4Of4_cosEG-2" value="&lt;font style=&quot;font-size: 14px&quot;&gt;Engine&lt;/font&gt;" style="ellipse;whiteSpace=wrap;html=1;rounded=1;shadow=1;glass=0;sketch=1;fontSize=13;fillColor=#fad9d5;strokeColor=#ae4132;fontStyle=1" vertex="1" parent="WIyWlLk6GJQsqaUBKTNV-1">
          <mxGeometry x="40" y="150" width="80" height="40" as="geometry" />
        </mxCell>
        <mxCell id="X8ssAYlHQM4Of4_cosEG-4" value="" style="endArrow=none;html=1;fontSize=13;entryX=0;entryY=1;entryDx=0;entryDy=0;" edge="1" parent="WIyWlLk6GJQsqaUBKTNV-1" target="X8ssAYlHQM4Of4_cosEG-1">
          <mxGeometry width="50" height="50" relative="1" as="geometry">
            <mxPoint x="-112" y="370" as="sourcePoint" />
            <mxPoint x="410" y="260" as="targetPoint" />
          </mxGeometry>
        </mxCell>
        <mxCell id="X8ssAYlHQM4Of4_cosEG-5" value="" style="endArrow=classic;html=1;fontSize=13;" edge="1" parent="WIyWlLk6GJQsqaUBKTNV-1">
          <mxGeometry width="50" height="50" relative="1" as="geometry">
            <mxPoint x="-110" y="160" as="sourcePoint" />
            <mxPoint x="-100" y="160" as="targetPoint" />
          </mxGeometry>
        </mxCell>
        <mxCell id="X8ssAYlHQM4Of4_cosEG-6" value="" style="endArrow=classic;html=1;fontSize=13;" edge="1" parent="WIyWlLk6GJQsqaUBKTNV-1">
          <mxGeometry width="50" height="50" relative="1" as="geometry">
            <mxPoint x="-110" y="190" as="sourcePoint" />
            <mxPoint x="-100" y="190" as="targetPoint" />
          </mxGeometry>
        </mxCell>
        <mxCell id="X8ssAYlHQM4Of4_cosEG-8" value="__init__.py" style="shape=parallelogram;perimeter=parallelogramPerimeter;html=1;fixedSize=1;rounded=1;shadow=1;glass=0;sketch=1;fontSize=13;fillColor=#cdeb8b;strokeColor=#109E00;labelBackgroundColor=none;labelBorderColor=none;whiteSpace=wrap;fontStyle=3" vertex="1" parent="WIyWlLk6GJQsqaUBKTNV-1">
          <mxGeometry x="-100" y="150" width="120" height="20" as="geometry" />
        </mxCell>
        <mxCell id="X8ssAYlHQM4Of4_cosEG-9" value="amenity.py" style="shape=parallelogram;perimeter=parallelogramPerimeter;whiteSpace=wrap;html=1;fixedSize=1;rounded=1;shadow=1;glass=0;sketch=1;fontSize=13;fillColor=#cdeb8b;strokeColor=#109E00;fontStyle=3" vertex="1" parent="WIyWlLk6GJQsqaUBKTNV-1">
          <mxGeometry x="-100" y="180" width="120" height="20" as="geometry" />
        </mxCell>
        <mxCell id="X8ssAYlHQM4Of4_cosEG-10" value="" style="endArrow=classic;html=1;fontSize=13;" edge="1" parent="WIyWlLk6GJQsqaUBKTNV-1">
          <mxGeometry width="50" height="50" relative="1" as="geometry">
            <mxPoint x="-110" y="220" as="sourcePoint" />
            <mxPoint x="-100" y="220" as="targetPoint" />
          </mxGeometry>
        </mxCell>
        <mxCell id="X8ssAYlHQM4Of4_cosEG-13" value="" style="endArrow=classic;html=1;fontSize=13;" edge="1" parent="WIyWlLk6GJQsqaUBKTNV-1">
          <mxGeometry width="50" height="50" relative="1" as="geometry">
            <mxPoint x="-110" y="250" as="sourcePoint" />
            <mxPoint x="-100" y="250" as="targetPoint" />
          </mxGeometry>
        </mxCell>
        <mxCell id="X8ssAYlHQM4Of4_cosEG-14" value="" style="endArrow=classic;html=1;fontSize=13;" edge="1" parent="WIyWlLk6GJQsqaUBKTNV-1">
          <mxGeometry width="50" height="50" relative="1" as="geometry">
            <mxPoint x="-110" y="280" as="sourcePoint" />
            <mxPoint x="-100" y="280" as="targetPoint" />
          </mxGeometry>
        </mxCell>
        <mxCell id="X8ssAYlHQM4Of4_cosEG-15" value="" style="endArrow=classic;html=1;fontSize=13;" edge="1" parent="WIyWlLk6GJQsqaUBKTNV-1">
          <mxGeometry width="50" height="50" relative="1" as="geometry">
            <mxPoint x="-110" y="310" as="sourcePoint" />
            <mxPoint x="-100" y="310" as="targetPoint" />
          </mxGeometry>
        </mxCell>
        <mxCell id="X8ssAYlHQM4Of4_cosEG-16" value="&lt;font style=&quot;font-size: 12px&quot;&gt;base_model.py&lt;/font&gt;" style="shape=parallelogram;perimeter=parallelogramPerimeter;whiteSpace=wrap;html=1;fixedSize=1;rounded=1;shadow=1;glass=0;sketch=1;fontSize=13;fillColor=#cdeb8b;strokeColor=#109E00;fontStyle=3" vertex="1" parent="WIyWlLk6GJQsqaUBKTNV-1">
          <mxGeometry x="-100" y="210" width="120" height="20" as="geometry" />
        </mxCell>
        <mxCell id="X8ssAYlHQM4Of4_cosEG-17" value="city.py" style="shape=parallelogram;perimeter=parallelogramPerimeter;whiteSpace=wrap;html=1;fixedSize=1;rounded=1;shadow=1;glass=0;sketch=1;fontSize=13;fillColor=#cdeb8b;strokeColor=#109E00;fontStyle=3" vertex="1" parent="WIyWlLk6GJQsqaUBKTNV-1">
          <mxGeometry x="-100" y="240" width="120" height="20" as="geometry" />
        </mxCell>
        <mxCell id="X8ssAYlHQM4Of4_cosEG-18" value="place.py" style="shape=parallelogram;perimeter=parallelogramPerimeter;whiteSpace=wrap;html=1;fixedSize=1;rounded=1;shadow=1;glass=0;sketch=1;fontSize=13;fillColor=#cdeb8b;strokeColor=#109E00;fontStyle=3" vertex="1" parent="WIyWlLk6GJQsqaUBKTNV-1">
          <mxGeometry x="-100" y="270" width="120" height="20" as="geometry" />
        </mxCell>
        <mxCell id="X8ssAYlHQM4Of4_cosEG-19" value="" style="endArrow=classic;html=1;fontSize=13;" edge="1" parent="WIyWlLk6GJQsqaUBKTNV-1">
          <mxGeometry width="50" height="50" relative="1" as="geometry">
            <mxPoint x="-110" y="340" as="sourcePoint" />
            <mxPoint x="-100" y="340" as="targetPoint" />
          </mxGeometry>
        </mxCell>
        <mxCell id="X8ssAYlHQM4Of4_cosEG-20" value="" style="endArrow=classic;html=1;fontSize=13;" edge="1" parent="WIyWlLk6GJQsqaUBKTNV-1">
          <mxGeometry width="50" height="50" relative="1" as="geometry">
            <mxPoint x="-110" y="370" as="sourcePoint" />
            <mxPoint x="-100" y="370" as="targetPoint" />
          </mxGeometry>
        </mxCell>
        <mxCell id="X8ssAYlHQM4Of4_cosEG-21" value="review.py" style="shape=parallelogram;perimeter=parallelogramPerimeter;whiteSpace=wrap;html=1;fixedSize=1;rounded=1;shadow=1;glass=0;sketch=1;fontSize=13;fillColor=#cdeb8b;strokeColor=#109E00;fontStyle=3" vertex="1" parent="WIyWlLk6GJQsqaUBKTNV-1">
          <mxGeometry x="-100" y="300" width="120" height="20" as="geometry" />
        </mxCell>
        <mxCell id="X8ssAYlHQM4Of4_cosEG-22" value="state.py" style="shape=parallelogram;perimeter=parallelogramPerimeter;whiteSpace=wrap;html=1;fixedSize=1;rounded=1;shadow=1;glass=0;sketch=1;fontSize=13;fillColor=#cdeb8b;strokeColor=#109E00;fontStyle=3" vertex="1" parent="WIyWlLk6GJQsqaUBKTNV-1">
          <mxGeometry x="-100" y="330" width="120" height="20" as="geometry" />
        </mxCell>
        <mxCell id="X8ssAYlHQM4Of4_cosEG-23" value="user.py" style="shape=parallelogram;perimeter=parallelogramPerimeter;whiteSpace=wrap;html=1;fixedSize=1;rounded=1;shadow=1;glass=0;sketch=1;fontSize=13;fillColor=#cdeb8b;strokeColor=#109E00;fontStyle=3" vertex="1" parent="WIyWlLk6GJQsqaUBKTNV-1">
          <mxGeometry x="-100" y="360" width="120" height="20" as="geometry" />
        </mxCell>
        <mxCell id="X8ssAYlHQM4Of4_cosEG-24" value="" style="endArrow=classic;html=1;fontSize=13;" edge="1" parent="WIyWlLk6GJQsqaUBKTNV-1">
          <mxGeometry width="50" height="50" relative="1" as="geometry">
            <mxPoint x="50" y="209" as="sourcePoint" />
            <mxPoint x="60" y="209" as="targetPoint" />
          </mxGeometry>
        </mxCell>
        <mxCell id="X8ssAYlHQM4Of4_cosEG-25" value="" style="endArrow=classic;html=1;fontSize=13;" edge="1" parent="WIyWlLk6GJQsqaUBKTNV-1">
          <mxGeometry width="50" height="50" relative="1" as="geometry">
            <mxPoint x="50" y="239" as="sourcePoint" />
            <mxPoint x="60" y="239" as="targetPoint" />
          </mxGeometry>
        </mxCell>
        <mxCell id="X8ssAYlHQM4Of4_cosEG-26" value="__init__.py" style="shape=parallelogram;perimeter=parallelogramPerimeter;html=1;fixedSize=1;rounded=1;shadow=1;glass=0;sketch=1;fontSize=13;fillColor=#cdeb8b;strokeColor=#109E00;labelBackgroundColor=none;labelBorderColor=none;whiteSpace=wrap;fontStyle=3" vertex="1" parent="WIyWlLk6GJQsqaUBKTNV-1">
          <mxGeometry x="60" y="200" width="120" height="20" as="geometry" />
        </mxCell>
        <mxCell id="X8ssAYlHQM4Of4_cosEG-27" value="db_storage.py" style="shape=parallelogram;perimeter=parallelogramPerimeter;whiteSpace=wrap;html=1;fixedSize=1;rounded=1;shadow=1;glass=0;sketch=1;fontSize=13;fillColor=#cdeb8b;strokeColor=#109E00;fontStyle=3" vertex="1" parent="WIyWlLk6GJQsqaUBKTNV-1">
          <mxGeometry x="60" y="230" width="120" height="20" as="geometry" />
        </mxCell>
        <mxCell id="X8ssAYlHQM4Of4_cosEG-28" value="" style="endArrow=classic;html=1;fontSize=13;" edge="1" parent="WIyWlLk6GJQsqaUBKTNV-1">
          <mxGeometry width="50" height="50" relative="1" as="geometry">
            <mxPoint x="50" y="270" as="sourcePoint" />
            <mxPoint x="60" y="270" as="targetPoint" />
          </mxGeometry>
        </mxCell>
        <mxCell id="X8ssAYlHQM4Of4_cosEG-32" value="&lt;font style=&quot;font-size: 12px&quot;&gt;file_storage.py&lt;/font&gt;" style="shape=parallelogram;perimeter=parallelogramPerimeter;whiteSpace=wrap;html=1;fixedSize=1;rounded=1;shadow=1;glass=0;sketch=1;fontSize=13;fillColor=#cdeb8b;strokeColor=#109E00;fontStyle=3" vertex="1" parent="WIyWlLk6GJQsqaUBKTNV-1">
          <mxGeometry x="60" y="260" width="120" height="20" as="geometry" />
        </mxCell>
        <mxCell id="X8ssAYlHQM4Of4_cosEG-40" value="" style="endArrow=none;html=1;fontSize=13;entryX=0;entryY=1;entryDx=0;entryDy=0;" edge="1" parent="WIyWlLk6GJQsqaUBKTNV-1" target="X8ssAYlHQM4Of4_cosEG-2">
          <mxGeometry width="50" height="50" relative="1" as="geometry">
            <mxPoint x="50" y="270" as="sourcePoint" />
            <mxPoint x="50" y="190" as="targetPoint" />
            <Array as="points">
              <mxPoint x="50" y="200" />
            </Array>
          </mxGeometry>
        </mxCell>
        <mxCell id="X8ssAYlHQM4Of4_cosEG-46" value="&lt;span style=&quot;font-size: 14px&quot;&gt;Web_flask&lt;/span&gt;" style="ellipse;whiteSpace=wrap;html=1;rounded=1;shadow=1;glass=0;sketch=1;fillColor=#fad9d5;strokeColor=#ae4132;fontStyle=1" vertex="1" parent="WIyWlLk6GJQsqaUBKTNV-1">
          <mxGeometry x="180" y="100" width="110" height="40" as="geometry" />
        </mxCell>
        <mxCell id="X8ssAYlHQM4Of4_cosEG-51" value="" style="endArrow=none;html=1;labelBackgroundColor=#000000;fontSize=13;entryX=0;entryY=1;entryDx=0;entryDy=0;" edge="1" parent="WIyWlLk6GJQsqaUBKTNV-1" target="X8ssAYlHQM4Of4_cosEG-46">
          <mxGeometry width="50" height="50" relative="1" as="geometry">
            <mxPoint x="196" y="380" as="sourcePoint" />
            <mxPoint x="410" y="260" as="targetPoint" />
          </mxGeometry>
        </mxCell>
        <mxCell id="X8ssAYlHQM4Of4_cosEG-54" value="" style="endArrow=classic;html=1;fontSize=13;" edge="1" parent="WIyWlLk6GJQsqaUBKTNV-1">
          <mxGeometry width="50" height="50" relative="1" as="geometry">
            <mxPoint x="200" y="160" as="sourcePoint" />
            <mxPoint x="210" y="159.5" as="targetPoint" />
          </mxGeometry>
        </mxCell>
        <mxCell id="X8ssAYlHQM4Of4_cosEG-56" value="" style="endArrow=classic;html=1;fontSize=13;" edge="1" parent="WIyWlLk6GJQsqaUBKTNV-1">
          <mxGeometry width="50" height="50" relative="1" as="geometry">
            <mxPoint x="200" y="180" as="sourcePoint" />
            <mxPoint x="210" y="180" as="targetPoint" />
          </mxGeometry>
        </mxCell>
        <mxCell id="X8ssAYlHQM4Of4_cosEG-57" value="" style="endArrow=classic;html=1;fontSize=13;" edge="1" parent="WIyWlLk6GJQsqaUBKTNV-1">
          <mxGeometry width="50" height="50" relative="1" as="geometry">
            <mxPoint x="200" y="200" as="sourcePoint" />
            <mxPoint x="210" y="200" as="targetPoint" />
          </mxGeometry>
        </mxCell>
        <mxCell id="X8ssAYlHQM4Of4_cosEG-58" value="" style="endArrow=classic;html=1;fontSize=13;" edge="1" parent="WIyWlLk6GJQsqaUBKTNV-1">
          <mxGeometry width="50" height="50" relative="1" as="geometry">
            <mxPoint x="200" y="220" as="sourcePoint" />
            <mxPoint x="210" y="220" as="targetPoint" />
          </mxGeometry>
        </mxCell>
        <mxCell id="X8ssAYlHQM4Of4_cosEG-59" value="" style="endArrow=classic;html=1;fontSize=13;" edge="1" parent="WIyWlLk6GJQsqaUBKTNV-1">
          <mxGeometry width="50" height="50" relative="1" as="geometry">
            <mxPoint x="200" y="239" as="sourcePoint" />
            <mxPoint x="210" y="239" as="targetPoint" />
          </mxGeometry>
        </mxCell>
        <mxCell id="X8ssAYlHQM4Of4_cosEG-60" value="" style="endArrow=classic;html=1;fontSize=13;" edge="1" parent="WIyWlLk6GJQsqaUBKTNV-1">
          <mxGeometry width="50" height="50" relative="1" as="geometry">
            <mxPoint x="200" y="260" as="sourcePoint" />
            <mxPoint x="210" y="260" as="targetPoint" />
          </mxGeometry>
        </mxCell>
        <mxCell id="X8ssAYlHQM4Of4_cosEG-61" value="" style="endArrow=classic;html=1;fontSize=13;" edge="1" parent="WIyWlLk6GJQsqaUBKTNV-1">
          <mxGeometry width="50" height="50" relative="1" as="geometry">
            <mxPoint x="200" y="280" as="sourcePoint" />
            <mxPoint x="210" y="280" as="targetPoint" />
          </mxGeometry>
        </mxCell>
        <mxCell id="X8ssAYlHQM4Of4_cosEG-62" value="" style="endArrow=classic;html=1;fontSize=13;" edge="1" parent="WIyWlLk6GJQsqaUBKTNV-1">
          <mxGeometry width="50" height="50" relative="1" as="geometry">
            <mxPoint x="200" y="300" as="sourcePoint" />
            <mxPoint x="210" y="300" as="targetPoint" />
          </mxGeometry>
        </mxCell>
        <mxCell id="X8ssAYlHQM4Of4_cosEG-63" value="" style="endArrow=classic;html=1;fontSize=13;" edge="1" parent="WIyWlLk6GJQsqaUBKTNV-1">
          <mxGeometry width="50" height="50" relative="1" as="geometry">
            <mxPoint x="200" y="320" as="sourcePoint" />
            <mxPoint x="210" y="320" as="targetPoint" />
          </mxGeometry>
        </mxCell>
        <mxCell id="X8ssAYlHQM4Of4_cosEG-64" value="" style="endArrow=classic;html=1;fontSize=13;" edge="1" parent="WIyWlLk6GJQsqaUBKTNV-1">
          <mxGeometry width="50" height="50" relative="1" as="geometry">
            <mxPoint x="200" y="339.5" as="sourcePoint" />
            <mxPoint x="210" y="339.5" as="targetPoint" />
          </mxGeometry>
        </mxCell>
        <mxCell id="X8ssAYlHQM4Of4_cosEG-65" value="" style="endArrow=classic;html=1;fontSize=13;" edge="1" parent="WIyWlLk6GJQsqaUBKTNV-1">
          <mxGeometry width="50" height="50" relative="1" as="geometry">
            <mxPoint x="200" y="360" as="sourcePoint" />
            <mxPoint x="210" y="360" as="targetPoint" />
          </mxGeometry>
        </mxCell>
        <mxCell id="X8ssAYlHQM4Of4_cosEG-66" value="" style="endArrow=classic;html=1;fontSize=13;" edge="1" parent="WIyWlLk6GJQsqaUBKTNV-1">
          <mxGeometry width="50" height="50" relative="1" as="geometry">
            <mxPoint x="200" y="380" as="sourcePoint" />
            <mxPoint x="210" y="380" as="targetPoint" />
          </mxGeometry>
        </mxCell>
        <mxCell id="X8ssAYlHQM4Of4_cosEG-67" value="__init__.py" style="shape=parallelogram;perimeter=parallelogramPerimeter;html=1;fixedSize=1;rounded=1;shadow=1;glass=0;sketch=1;fontSize=13;fillColor=#cdeb8b;strokeColor=#109E00;labelBackgroundColor=none;labelBorderColor=none;whiteSpace=wrap;fontStyle=3" vertex="1" parent="WIyWlLk6GJQsqaUBKTNV-1">
          <mxGeometry x="210" y="155" width="130" height="15" as="geometry" />
        </mxCell>
        <mxCell id="X8ssAYlHQM4Of4_cosEG-69" value="&lt;font style=&quot;font-size: 11px&quot;&gt;0-hello_route.py&lt;/font&gt;" style="shape=parallelogram;perimeter=parallelogramPerimeter;html=1;fixedSize=1;rounded=1;shadow=1;glass=0;sketch=1;fontSize=13;fillColor=#cdeb8b;strokeColor=#109E00;labelBackgroundColor=none;labelBorderColor=none;whiteSpace=wrap;fontStyle=3" vertex="1" parent="WIyWlLk6GJQsqaUBKTNV-1">
          <mxGeometry x="210" y="175" width="130" height="15" as="geometry" />
        </mxCell>
        <mxCell id="X8ssAYlHQM4Of4_cosEG-70" value="&lt;font style=&quot;font-size: 11px&quot;&gt;1-hbnb_route.py&lt;/font&gt;" style="shape=parallelogram;perimeter=parallelogramPerimeter;html=1;fixedSize=1;rounded=1;shadow=1;glass=0;sketch=1;fontSize=13;fillColor=#cdeb8b;strokeColor=#109E00;labelBackgroundColor=none;labelBorderColor=none;whiteSpace=wrap;fontStyle=3" vertex="1" parent="WIyWlLk6GJQsqaUBKTNV-1">
          <mxGeometry x="210" y="195" width="130" height="15" as="geometry" />
        </mxCell>
        <mxCell id="X8ssAYlHQM4Of4_cosEG-71" value="&lt;font style=&quot;font-size: 11px&quot;&gt;10-hbnb_filters.py&lt;/font&gt;" style="shape=parallelogram;perimeter=parallelogramPerimeter;html=1;fixedSize=1;rounded=1;shadow=1;glass=0;sketch=1;fontSize=13;fillColor=#cdeb8b;strokeColor=#109E00;labelBackgroundColor=none;labelBorderColor=none;whiteSpace=wrap;fontStyle=3" vertex="1" parent="WIyWlLk6GJQsqaUBKTNV-1">
          <mxGeometry x="210" y="212.5" width="130" height="15" as="geometry" />
        </mxCell>
        <mxCell id="X8ssAYlHQM4Of4_cosEG-72" value="&lt;font style=&quot;font-size: 11px&quot;&gt;2-c_route.py&lt;/font&gt;" style="shape=parallelogram;perimeter=parallelogramPerimeter;html=1;fixedSize=1;rounded=1;shadow=1;glass=0;sketch=1;fontSize=13;fillColor=#cdeb8b;strokeColor=#109E00;labelBackgroundColor=none;labelBorderColor=none;whiteSpace=wrap;fontStyle=3" vertex="1" parent="WIyWlLk6GJQsqaUBKTNV-1">
          <mxGeometry x="210" y="232.5" width="130" height="15" as="geometry" />
        </mxCell>
        <mxCell id="X8ssAYlHQM4Of4_cosEG-73" value="&lt;font style=&quot;font-size: 11px&quot;&gt;3-python_route.py&lt;/font&gt;" style="shape=parallelogram;perimeter=parallelogramPerimeter;html=1;fixedSize=1;rounded=1;shadow=1;glass=0;sketch=1;fontSize=13;fillColor=#cdeb8b;strokeColor=#109E00;labelBackgroundColor=none;labelBorderColor=none;whiteSpace=wrap;fontStyle=3" vertex="1" parent="WIyWlLk6GJQsqaUBKTNV-1">
          <mxGeometry x="210" y="250" width="130" height="15" as="geometry" />
        </mxCell>
        <mxCell id="X8ssAYlHQM4Of4_cosEG-74" value="__init__.py" style="shape=parallelogram;perimeter=parallelogramPerimeter;html=1;fixedSize=1;rounded=1;shadow=1;glass=0;sketch=1;fontSize=13;fillColor=#cdeb8b;strokeColor=#109E00;labelBackgroundColor=none;labelBorderColor=none;whiteSpace=wrap;fontStyle=3" vertex="1" parent="WIyWlLk6GJQsqaUBKTNV-1">
          <mxGeometry x="210" y="270" width="130" height="15" as="geometry" />
        </mxCell>
        <mxCell id="X8ssAYlHQM4Of4_cosEG-75" value="__init__.py" style="shape=parallelogram;perimeter=parallelogramPerimeter;html=1;fixedSize=1;rounded=1;shadow=1;glass=0;sketch=1;fontSize=13;fillColor=#cdeb8b;strokeColor=#109E00;labelBackgroundColor=none;labelBorderColor=none;whiteSpace=wrap;fontStyle=3" vertex="1" parent="WIyWlLk6GJQsqaUBKTNV-1">
          <mxGeometry x="210" y="290" width="130" height="15" as="geometry" />
        </mxCell>
        <mxCell id="X8ssAYlHQM4Of4_cosEG-76" value="__init__.py" style="shape=parallelogram;perimeter=parallelogramPerimeter;html=1;fixedSize=1;rounded=1;shadow=1;glass=0;sketch=1;fontSize=13;fillColor=#cdeb8b;strokeColor=#109E00;labelBackgroundColor=none;labelBorderColor=none;whiteSpace=wrap;fontStyle=3" vertex="1" parent="WIyWlLk6GJQsqaUBKTNV-1">
          <mxGeometry x="210" y="310" width="130" height="20" as="geometry" />
        </mxCell>
        <mxCell id="X8ssAYlHQM4Of4_cosEG-77" value="__init__.py" style="shape=parallelogram;perimeter=parallelogramPerimeter;html=1;fixedSize=1;rounded=1;shadow=1;glass=0;sketch=1;fontSize=13;fillColor=#cdeb8b;strokeColor=#109E00;labelBackgroundColor=none;labelBorderColor=none;whiteSpace=wrap;fontStyle=3" vertex="1" parent="WIyWlLk6GJQsqaUBKTNV-1">
          <mxGeometry x="210" y="332.5" width="130" height="15" as="geometry" />
        </mxCell>
        <mxCell id="X8ssAYlHQM4Of4_cosEG-78" value="__init__.py" style="shape=parallelogram;perimeter=parallelogramPerimeter;html=1;fixedSize=1;rounded=1;shadow=1;glass=0;sketch=1;fontSize=13;fillColor=#cdeb8b;strokeColor=#109E00;labelBackgroundColor=none;labelBorderColor=none;whiteSpace=wrap;fontStyle=3" vertex="1" parent="WIyWlLk6GJQsqaUBKTNV-1">
          <mxGeometry x="210" y="350" width="130" height="15" as="geometry" />
        </mxCell>
        <mxCell id="X8ssAYlHQM4Of4_cosEG-79" value="__init__.py" style="shape=parallelogram;perimeter=parallelogramPerimeter;html=1;fixedSize=1;rounded=1;shadow=1;glass=0;sketch=1;fontSize=13;fillColor=#cdeb8b;strokeColor=#109E00;labelBackgroundColor=none;labelBorderColor=none;whiteSpace=wrap;fontStyle=3" vertex="1" parent="WIyWlLk6GJQsqaUBKTNV-1">
          <mxGeometry x="210" y="370" width="130" height="15" as="geometry" />
        </mxCell>
      </root>
    </mxGraphModel>
  </diagram>
</mxfile>
